<?xml version="1.0" encoding="UTF-8"?>
<svg version="1.1" viewBox="0 0 2048 1153" width="333" height="188" xmlns="http://www.w3.org/2000/svg">
<path transform="translate(428,501)" d="m0 0h25l21 3 21 6 16 8 11 7 14 12 11 12 12 17 9 16 9 19 8 22v2l-7-1-24-7-18-6-21-9-15-9-13-11-8-10-6-10-1-6 1-2v-7l-2-4-4-2h-6l-5 4-1 2v6l3 5 9 2 11 18 10 11 14 10 21 11 21 8 24 7 12 3v3l-16 4-20 4-20 2h-13l-21-2-15-3-15-5-19-10-13-10-15-15-13-18-10-18-9-19-7-21-1-8 14-4 24-5z" fill="#399A52"/>
<path transform="translate(777,499)" d="m0 0h12l17 1 23 4 13 3 1 5-9 29-8 19-10 18-10 14-12 14-10 9-16 11-14 7-20 6-20 3-12 1h-11l-27-2-25-5 1-3 16-8 29-14 24-11 25-12 23-14 6-5 8 1 7-3 1-2v-9l-5-4h-8l-4 4-1 6-1 5-18 12-29 15-28 13-26 12-19 10-3-1 7-23 10-25 10-18 9-13 11-12 11-11 13-9 19-9 20-6 12-2z" fill="#399A52"/>
<path transform="translate(608,373)" d="m0 0 4 2 10 10 9 11 11 15 9 15 10 21 6 19 3 21v14l-3 21-5 16-5 13-10 18-11 16-8 10-11 13-2 1 5-38 1-13v-19l-2-21-4-13-8-16-4-6v-8l-3-5-2-1h-8l-4 4-1 2v6l2 4 4 2h9l7 10 5 11 4 16 1 9v26l-3 28-4 24-2 4-14-14-9-11-9-12-13-21-8-18-6-20-2-11-1-16 2-18 4-16 5-14 8-16 9-15 12-16 12-14 7-8z" fill="#399A52"/>
<path transform="translate(1283,504)" d="m0 0h45l16 2 12 4 11 8 6 7 5 10 3 16v9l-3 16-6 12-9 9-14 7-16 3h-50l-1-15v-66zm24 20v63h26l11-4 7-7 4-10 1-14-2-11-5-8-7-6-10-3z" fill="#399A52"/>
<path transform="translate(1190,531)" d="m0 0h13l8 3 6 7 2 4 2 1 2-4 5-5 6-4 6-2h12l9 4 5 6 3 7 1 11v47l-1 1h-21l-1-4-1-46-2-5-4-1h-10l-5 4-3 9-1 43h-22l-1-49-4-6-2-1h-10l-5 2-2 5-1 3-1 45-1 1h-21l-1-6v-67l1-1h17l2 4 1 7 7-6 9-6z" fill="#399A52"/>
<path transform="translate(1560,500)" d="m0 0h21l1 1 1 43 5-6 8-5 6-2h12l8 3 5 4 5 10 1 58-1 1h-21l-1-1-1-48-4-6-5-2-8 1-6 4-3 6-1 45-1 1h-21l-1-1v-105z" fill="#399A52"/>
<path transform="translate(907,504)" d="m0 0h69l1 1v20h-46l1 24h35l1 1v18h-37v39h-24l-1-1v-101z" fill="#399A52"/>
<path transform="translate(1016,530)" d="m0 0h11l12 3 8 5 6 7 3 7 1 5 1 36 9-1 3 5 1 6-1 2-11 4h-12l-6-3-4-5-1-5-8 7-6 4-7 2h-15l-9-4-5-4-4-8v-10l3-6 5-5 8-5 11-3 21-3 4-2-1-7-4-4-9-1-7 2-5 6-3 5-16-2-5-2 3-10 7-8 12-6zm13 44-18 3-6 4-1 6 3 5 5 2h9l6-3 7-8 1-8-1-1z" fill="#399A52"/>
<path transform="translate(1421,530)" d="m0 0h11l12 3 10 6 5 7 3 12 1 36 9-3 5 11-5 4-8 3h-12l-8-5-3-5v-3l-8 7-7 4-6 2h-15l-9-4-5-4-4-8v-10l3-6 5-5 11-6 17-3 13-2 3-2-1-7-4-4-9-1-8 3-4 5-2 5-18-2-4-2 3-9 6-8 10-6 6-2zm13 44-17 3-6 3-2 4 1 5 4 4 3 1h9l8-4 5-7 1-8-1-1z" fill="#399A52"/>
<path transform="translate(1504,531)" d="m0 0h21l12 5 7 7 3 6v3l-9 2-9 1-5-7-5-2h-10l-6 4v5l4 3 28 6 10 5 5 6 2 6v7l-3 8-8 8-9 4-5 1h-24l-12-5-6-5-5-10-1-4 1-1 14-2h5l3 6 5 4 7 2h8l8-4 1-5-3-4-11-3-17-3-9-4-5-4-3-7v-10l4-9 7-6z" fill="#399A52"/>
<path transform="translate(1113,531)" d="m0 0h12l8 4 6 8 3 8v6l-14 4h-5l-3-9-3-3-6-1-6 3-4 6-1 5-1 45h-22v-74h17l2 3 2 7 4-5 9-6z" fill="#399A52"/>
<path transform="translate(462,646)" d="m0 0 9 6 9 8 12 6 4 1h17l10-4 20-11 14-4 10-1h12l12 2 12 5 16 8 11 4 4 1h17l12-5 21-9 13-3h15l12 3 12 6 11 9v2h2l7 9-1 4-10-9-11-10-14-7-5-1h-17l-18 6-19 9-10 3h-16l-15-5-24-12-10-3-7-1h-13l-17 4-14 7-10 6-11 4h-16l-13-4-9-6-11-10-4-7z" fill="#399A52"/>
<path transform="translate(460,667)" d="m0 0 4 2 9 9 14 8 8 3h15l12-5 21-11 13-4 17-1 11 1 13 5 23 11 13 4h14l13-5 21-9 11-3h21l15 5 12 8 12 12 2 4v3l-4-2-8-8-10-8-13-7-10-2h-11l-18 6-22 10-6 2-13 1-11-2-15-6-23-11-10-2h-18l-16 4-24 13-8 3-6 1h-8l-10-2-10-4-9-7-10-10z" fill="#399A52"/>
</svg>
